<?xml version="1.0" encoding="UTF-8" standalone="no"?>
<svg width="126px" height="126px" viewBox="0 0 126 126" version="1.1" xmlns="http://www.w3.org/2000/svg" xmlns:xlink="http://www.w3.org/1999/xlink" xmlns:sketch="http://www.bohemiancoding.com/sketch/ns">
    <!-- Generator: Sketch 3.3.2 (12043) - http://www.bohemiancoding.com/sketch -->
    <title>Gear</title>
    <desc>Created with Sketch.</desc>
    <defs></defs>
    <g id="Page-1" stroke="none" stroke-width="1" fill="none" fill-rule="evenodd" sketch:type="MSPage">
        <g id="Desktop-HD-A3" sketch:type="MSArtboardGroup" transform="translate(-657.000000, -449.000000)">
            <g id="Microphone-Button" sketch:type="MSLayerGroup" transform="translate(592.000000, 384.000000)"></g>
            <path d="M782.107476,505.060088 C781.909812,503.302971 779.861083,501.982576 778.089549,501.982576 C772.361944,501.982576 767.279421,498.619498 765.147906,493.418377 C762.970346,488.091216 764.374458,481.87852 768.64307,477.962913 C769.98672,476.734606 770.149967,474.678435 769.02305,473.250139 C766.091577,469.527544 762.75966,466.164931 759.121712,463.250666 C757.697136,462.107471 755.607014,462.266532 754.37173,463.634367 C750.646345,467.760196 743.954605,469.293603 738.783715,467.136043 C733.402604,464.872441 730.009295,459.419705 730.34137,453.566526 C730.450667,451.728018 729.107017,450.129498 727.27409,449.916021 C722.605499,449.376049 717.89598,449.359306 713.213437,449.878814 C711.401439,450.078803 710.057789,451.639651 710.118716,453.454904 C710.322427,459.250412 706.888189,464.607804 701.560563,466.790014 C696.451531,468.876881 689.806765,467.356496 686.088821,463.267409 C684.860049,461.920504 682.803879,461.754931 681.372326,462.870686 C677.626477,465.809601 674.21968,469.175005 671.261232,472.866903 C670.107339,474.302176 670.277098,476.382531 671.634235,477.61735 C675.984238,481.556677 677.388815,487.823323 675.128935,493.211876 C672.971374,498.349279 667.636772,501.660267 661.529652,501.660267 C659.547896,501.59655 658.136343,502.926712 657.91961,504.728478 C657.369872,509.424044 657.36336,514.208442 657.892635,518.942146 C658.088904,520.706704 660.199955,522.015472 661.991023,522.015472 C667.433527,521.87641 672.658832,525.246 674.85081,530.580137 C677.035811,535.907298 675.631234,542.116272 671.35611,546.035135 C670.018972,547.263443 669.849213,549.316357 670.976131,550.744654 C673.880163,554.443529 677.212546,557.809398 680.863516,560.747847 C682.295533,561.90174 684.379144,561.738958 685.620474,560.371123 C689.359812,556.235062 696.051087,554.704445 701.201512,556.866192 C706.596112,559.122817 709.989421,564.575087 709.657345,570.431522 C709.548979,572.27096 710.89914,573.872271 712.724625,574.082493 C715.112871,574.361082 717.515535,574.500145 719.924711,574.500145 C722.211567,574.500145 724.498888,574.37457 726.785744,574.120165 C728.598206,573.920176 729.940926,572.359328 729.879999,570.540819 C729.670243,564.748566 733.110526,559.391175 738.431176,557.212685 C743.574625,555.111866 750.191486,556.649459 753.909894,560.73436 C755.145643,562.078475 757.187396,562.240792 758.626855,561.128757 C762.365727,558.196819 765.765548,554.834206 768.737949,551.132076 C769.891376,549.700058 769.728594,547.616447 768.36448,546.382094 C764.014477,542.442767 762.602924,536.17519 764.862805,530.790358 C766.987344,525.721323 772.123817,522.317782 777.648642,522.317782 L778.421624,522.337781 C780.213622,522.483355 781.862373,521.102962 782.079571,519.273757 C782.630239,514.574005 782.63675,509.793792 782.107476,505.060088 L782.107476,505.060088 Z M720.09912,532.979545 C708.602982,532.979545 699.251848,523.628411 699.251848,512.132273 C699.251848,500.6366 708.602982,491.285001 720.09912,491.285001 C731.594792,491.285001 740.945927,500.6366 740.945927,512.132273 C740.945927,523.628411 731.594792,532.979545 720.09912,532.979545 L720.09912,532.979545 Z" id="Gear" fill="#FFFFFF" sketch:type="MSShapeGroup"></path>
        </g>
    </g>
</svg>