<?xml version="1.0" encoding="UTF-8" standalone="no"?>
<svg width="90px" height="125px" viewBox="0 0 90 125" version="1.1" xmlns="http://www.w3.org/2000/svg" xmlns:xlink="http://www.w3.org/1999/xlink" xmlns:sketch="http://www.bohemiancoding.com/sketch/ns">
    <!-- Generator: Sketch 3.3.2 (12043) - http://www.bohemiancoding.com/sketch -->
    <title>Shape</title>
    <desc>Created with Sketch.</desc>
    <defs></defs>
    <g id="Page-1" stroke="none" stroke-width="1" fill="none" fill-rule="evenodd" sketch:type="MSPage">
        <g id="Desktop-HD-A1" sketch:type="MSArtboardGroup" transform="translate(-675.000000, -450.000000)" fill="#FFFFFF">
            <g id="Microphone-Button" sketch:type="MSLayerGroup" transform="translate(592.000000, 384.000000)">
                <path d="M154.928034,129.504641 L154.928034,92.1255388 C154.928034,77.718807 143.078759,66 128.513516,66 C113.948273,66 102.100529,77.718807 102.100529,92.1255388 L102.100529,129.506154 C102.100529,143.911372 113.948273,155.630179 128.513516,155.630179 C143.078759,155.630179 154.928034,143.909859 154.928034,129.504641 Z M169.975742,113.887132 L164.775957,113.887132 C163.105733,113.887132 161.750188,115.243202 161.750188,116.914074 L161.750188,127.552263 C161.750188,146.167958 146.609238,161.314777 127.999243,161.314777 C109.389248,161.314777 94.2513236,146.167958 94.2513236,127.552263 L94.2513236,116.914074 C94.2513236,115.243202 92.8957789,113.887132 91.2255542,113.887132 L86.0257694,113.887132 C84.3555447,113.887132 83,115.243202 83,116.914074 L83,127.552263 C83,149.810883 100.296811,169.425469 122.374338,172.208742 L122.374338,179.745829 L99.1515572,179.745829 C97.4813325,179.745829 96.1257878,181.101899 96.1257878,182.772771 L96.1257878,187.973058 C96.1257878,189.64393 97.4813325,191 99.1515572,191 L156.849954,191 C158.520179,191 159.875724,189.64393 159.875724,187.973058 L159.875724,182.772771 C159.875724,181.101899 158.520179,179.745829 156.849954,179.745829 L133.625661,179.745829 L133.625661,172.208742 C155.704701,169.426982 172.999999,149.810883 172.999999,127.552263 L172.999999,116.914074 C173.001512,115.241689 171.645967,113.887132 169.975742,113.887132 Z" id="Shape" sketch:type="MSShapeGroup"></path>
            </g>
        </g>
    </g>
</svg>